<?xml version="1.0" encoding="utf-8"?>
<!-- Generator: Adobe Illustrator 19.0.0, SVG Export Plug-In . SVG Version: 6.00 Build 0)  -->
<svg version="1.1" id="Layer_1" xmlns="http://www.w3.org/2000/svg" xmlns:xlink="http://www.w3.org/1999/xlink" x="0px" y="0px"
	 viewBox="94 -4 800 800" style="enable-background:new 94 -4 800 800;" xml:space="preserve">
<style type="text/css">
	.st0{fill:#F78D1E;}
	.st1{fill:#FCCE59;}
	.st2{fill:#F78D1E;stroke:#F78D1E;stroke-width:20;stroke-miterlimit:10;}
	.st3{fill:#FCCE59;stroke:#F78D1E;stroke-width:20;stroke-miterlimit:10;}
</style>
<g id="Capa_1">
	<g>
		<g id="XMLID_1_">
			<g>
				<path class="st0" d="M890.6,342.9c3.3,30.4,2.6,61.6-1.9,92.8c0,0.9-0.2,1.7-0.3,2.5c-4.7,31-13.3,61.9-25.6,92.1
					c-0.2,0.5-0.4,1-0.7,1.6c-21,50.8-52.7,99.2-94.9,141.4c-26.4,26.4-55.7,49-86.9,67.5c-1.4,1.3-3,2.1-4.7,2.7
					c-20.6,11.9-42,22.1-64,30.3c-0.4,0.2-0.7,0.3-1.1,0.4c-43.8,16.2-89.6,24.8-135.3,24.8c-89.2,0-171.1-32.8-230.6-92.2
					c-9.5-9.6-18.4-19.8-27.2-31.4c-10.6-8.1-20.8-16.7-30.3-26.1C52.3,514.5,67.3,280.1,220.7,126.8C300.7,46.8,407.1,1,512.7,1
					c89.2,0,171.1,32.8,230.5,92.3c9.8,9.8,18.7,20.1,26.9,30.9c11.2,8.6,21.3,17.3,30.6,26.6c51.8,51.8,81.4,118.3,89.6,189.2
					C890.5,340.9,890.7,341.9,890.6,342.9z M864.7,406.4c1.4-19.6,1.2-39.1-0.7-58.2l-28.8-28.8c0,1.6-0.1,3.2-0.1,4.7
					c0,3.7-0.1,7.5-0.2,11.2c-0.1,3.7-0.2,7.4-0.5,11.1c-0.4,6.5-1,13-1.7,19.5c-0.3,2.5-0.6,5-1,7.6L864.7,406.4z M860.4,440.5
					L826,406.1c-1,4.6-2,9.1-3.2,13.7c-0.6,2.2-1.2,4.4-1.8,6.7c-1.6,5.8-3.4,11.6-5.2,17.4c-0.7,2.2-1.4,4.3-2.1,6.5
					c-1.7,4.9-3.5,9.8-5.4,14.7l36.3,36.3C851.6,481.2,856.9,460.9,860.4,440.5z M832.3,278.2l23.2,23.2
					c-7.9-30.7-20.2-59.9-37.5-86.5c0.5,1.6,0.9,3.2,1.4,4.7c1.5,4.8,2.9,9.6,4.2,14.4c0.8,2.8,1.5,5.5,2.2,8.3
					c1.5,6.3,2.8,12.6,3.9,19c0.6,3.5,1.1,7,1.6,10.6C831.7,273.9,832.1,276,832.3,278.2z M833.7,528.8l-36.9-36.9
					c-0.7,1.4-1.4,2.8-2,4.2c-0.8,1.6-1.6,3.2-2.3,4.8c-3.8,7.6-7.7,15.1-12,22.5c-0.3,0.6-0.7,1.1-1,1.7c-0.8,1.5-1.7,2.9-2.6,4.3
					l37.6,37.6C821.6,554.5,828,541.8,833.7,528.8z M808,333.8c0.2-7.3,0.2-14.6-0.1-21.9c-0.1-3-0.3-6-0.5-9
					c-0.4-7.3-1.1-14.6-2-21.9c-0.3-2.7-0.8-5.3-1.2-7.9c-1.2-7.6-2.5-15.2-4.3-22.7c-0.4-1.8-1-3.7-1.4-5.5
					c-2-7.9-4.2-15.8-6.9-23.5c-0.3-0.8-0.5-1.5-0.8-2.3c-3-8.6-6.5-17.1-10.3-25.5c-0.2-0.4-0.3-0.8-0.5-1.2
					c-4.1-8.7-8.6-17.2-13.6-25.5c-0.1-0.2-0.2-0.4-0.3-0.6c-5.1-8.4-10.6-16.6-16.5-24.5c-0.3-0.4-0.5-0.7-0.8-1.1l-3.5-4.7
					c-6.6-8.3-13.6-16.2-21.2-23.8C669.6,58,594.6,28,512.6,28c-98.5,0-197.9,43-272.8,117.8C97.1,288.5,82,505.7,206.3,630
					c11.5,11.5,24.1,21.7,37.4,30.9c3.2,2.3,6.4,4.6,9.7,6.7c6,3.8,12.1,7.3,18.3,10.7c1.4,0.7,2.7,1.6,4.1,2.4
					c7.8,4,15.9,7.7,24.1,11c2.4,1,4.9,1.8,7.3,2.7c6,2.2,12,4.3,18.1,6.2c3.2,1,6.4,1.8,9.6,2.7c5.5,1.5,11.1,2.8,16.7,4
					c3.6,0.8,7.3,1.5,10.9,2.1c5.4,0.9,10.8,1.6,16.2,2.3c3.9,0.5,7.7,1,11.7,1.3c6.2,0.5,12.4,0.7,18.7,0.8
					c2.9,0.1,5.8,0.3,8.7,0.3c92.3,0,185.4-37.7,258.3-104.1c4.9-4.4,9.6-9,14.3-13.7c7.7-7.7,14.9-15.6,21.9-23.7
					c0.7-0.8,1.3-1.5,2-2.3c6.6-7.8,12.8-15.8,18.7-23.9c0.8-1.1,1.6-2.2,2.4-3.3c5.7-8,11.1-16.2,16.1-24.5
					c0.8-1.3,1.5-2.5,2.3-3.8c4.9-8.3,9.5-16.6,13.8-25.1c0.7-1.3,1.3-2.6,1.9-4c4.2-8.5,8-17.1,11.5-25.8c0.5-1.3,1-2.6,1.5-3.9
					c3.4-8.7,6.5-17.4,9.2-26.2c0.4-1.2,0.7-2.4,1-3.6c2.4-7.9,4.4-15.9,6.3-23.9c0.4-1.9,0.9-3.7,1.3-5.6c1.7-7.9,3-15.9,4.1-23.9
					c0.4-2.6,0.8-5.3,1.1-7.9c0.9-7.5,1.5-15,1.9-22.5C807.7,339.8,807.9,336.8,808,333.8z M799.7,590.7l-37.8-37.8
					c-4.3,6.2-8.7,12.3-13.3,18.4c-0.3,0.3-0.5,0.7-0.8,1c-3.5,4.5-7,9-10.7,13.4l38.1,38.1C784,613,792.1,602,799.7,590.7z
					 M757.2,644.1L719,605.9c-3.1,3.3-6.2,6.6-9.4,9.8c-6.4,6.4-13.1,12.5-19.8,18.5l38.3,38.3c6.8-6,13.4-12.1,19.9-18.5
					C751.2,650.8,754.1,647.4,757.2,644.1z M707.1,689.8l-38.2-38.2c-10.9,8.5-22.1,16.5-33.7,23.9l37.9,37.9
					C684.8,706.2,696.1,698.3,707.1,689.8z M648.7,727.3l-37.5-37.5c-12.6,7-25.5,13.3-38.6,18.9l36.7,36.7
					C622.7,740.2,635.9,734.2,648.7,727.3z M581,755.5l-36.1-36.1c-19.9,6.9-40.3,12.3-60.8,15.9l33.7,33.7
					C539.1,766.5,560.3,761.9,581,755.5z M482.1,771.7l-31.8-31.8c-10.9,1-21.8,1.6-32.7,1.6c-3.3,0-6.4-0.4-9.7-0.4
					c-4.9-0.1-9.8-0.2-14.6-0.6l26.5,26.5c18,3.1,36.4,4.9,55.3,4.9C477.5,771.9,479.8,771.8,482.1,771.7z M368,753.4l-18.7-18.7
					c-1.5-0.3-2.9-0.7-4.3-1c-6-1.3-11.9-2.7-17.8-4.2c-3.7-1-7.5-2.1-11.2-3.2c-2.4-0.7-4.8-1.3-7.1-2
					C327.3,736.1,347.1,745.9,368,753.4z"/>
				<path class="st0" d="M879.4,717.6c7.5,0,13.6,6.1,13.6,13.6c0,30.5-31.3,67.8-67.8,67.8c-7.5,0-13.6-6.1-13.6-13.6
					s6.1-13.6,13.6-13.6c22.1,0,40.7-25,40.7-40.7C865.8,723.7,871.9,717.6,879.4,717.6z"/>
				<path class="st0" d="M865.8,595.6c7.5,0,13.6,6.1,13.6,13.6c0,86.7-69.7,162.7-149.2,162.7c-7.5,0-13.6-6.1-13.6-13.6
					s6.1-13.6,13.6-13.6c63.9,0,122-64.6,122-135.6C852.3,601.7,858.3,595.6,865.8,595.6z"/>
				<path class="st1" d="M864,348.2c1.9,19.2,2.1,38.6,0.7,58.2l-32.9-32.9c0.3-2.5,0.7-5,1-7.6c0.7-6.5,1.3-13,1.7-19.5
					c0.2-3.7,0.3-7.4,0.5-11.1c0.1-3.8,0.2-7.5,0.2-11.2c0-1.6,0.1-3.2,0.1-4.7L864,348.2z"/>
				<path class="st0" d="M865.8,88.1c0,7.5-6.1,13.6-13.6,13.6s-13.5-6.1-13.5-13.6c0-31.9-26.2-62-46.5-62
					c-7.5,0-13.6-6.1-13.6-13.6s6.1-13.6,13.6-13.6C829.3-1,865.8,43.1,865.8,88.1z"/>
				<path class="st1" d="M826,406.1l34.4,34.4c-3.5,20.4-8.8,40.8-15.9,60.9l-36.3-36.3c1.9-4.9,3.7-9.8,5.4-14.7
					c0.8-2.2,1.4-4.3,2.1-6.5c1.9-5.8,3.6-11.6,5.2-17.4c0.6-2.2,1.3-4.4,1.8-6.7C824,415.2,825,410.7,826,406.1z"/>
				<path class="st1" d="M855.5,301.3l-23.2-23.2c-0.3-2.1-0.6-4.3-1-6.4c-0.5-3.5-1-7.1-1.6-10.6c-1.1-6.4-2.5-12.7-3.9-19
					c-0.7-2.8-1.5-5.6-2.2-8.3c-1.3-4.8-2.7-9.6-4.2-14.4c-0.5-1.6-0.9-3.2-1.4-4.7C835.4,241.4,847.7,270.7,855.5,301.3z"/>
				<path class="st1" d="M796.8,491.9l36.9,36.9c-5.7,13-12.2,25.7-19.3,38.2l-37.6-37.6c0.9-1.4,1.8-2.9,2.6-4.3
					c0.3-0.6,0.7-1.1,1-1.7c4.3-7.4,8.2-14.9,12-22.5c0.8-1.6,1.6-3.2,2.3-4.8C795.4,494.7,796.1,493.3,796.8,491.9z"/>
				<path class="st1" d="M807.9,311.9c0.3,7.3,0.3,14.5,0.1,21.9c-0.1,3-0.3,6-0.4,9c-0.4,7.5-1,15-1.9,22.5
					c-0.3,2.6-0.7,5.3-1.1,7.9c-1.1,8-2.4,15.9-4.1,23.9c-0.4,1.9-0.9,3.7-1.3,5.6c-1.8,8-3.9,16-6.3,23.9c-0.3,1.2-0.7,2.4-1,3.6
					c-2.7,8.8-5.8,17.5-9.2,26.2c-0.5,1.3-1,2.6-1.5,3.9c-3.5,8.7-7.4,17.3-11.5,25.8c-0.7,1.3-1.3,2.7-1.9,4
					c-4.2,8.5-8.9,16.8-13.8,25.1c-0.8,1.3-1.5,2.5-2.3,3.8c-5.1,8.3-10.4,16.5-16.1,24.5c-0.8,1.1-1.6,2.2-2.4,3.3
					c-5.9,8.1-12.1,16.1-18.7,23.9c-0.7,0.8-1.4,1.5-2,2.3c-6.9,8.1-14.2,16-21.9,23.7c-4.7,4.7-9.5,9.2-14.3,13.7
					c-73,66.4-166.1,104.1-258.3,104.1c-2.9,0-5.8-0.3-8.7-0.3c-6.3-0.2-12.5-0.3-18.7-0.8c-3.9-0.3-7.8-0.9-11.7-1.3
					c-5.4-0.7-10.9-1.3-16.2-2.3c-3.7-0.6-7.3-1.4-10.9-2.1c-5.6-1.2-11.2-2.5-16.7-4c-3.2-0.8-6.4-1.7-9.6-2.7
					c-6.1-1.9-12.1-4-18.1-6.2c-2.4-0.9-4.9-1.7-7.3-2.7c-8.2-3.3-16.3-7-24.1-11c-1.4-0.7-2.7-1.6-4.1-2.4
					c-6.2-3.4-12.4-6.9-18.3-10.7c-3.3-2.1-6.5-4.4-9.7-6.7c-13.2-9.3-25.9-19.4-37.4-30.9C82.3,506.2,97.3,289,240,146.2
					C314.7,71,414.1,28,512.6,28c81.9,0,157,29.9,211.4,84.3c7.6,7.6,14.7,15.6,21.2,23.8l3.5,4.7c0.3,0.3,0.5,0.7,0.8,1.1
					c6,7.9,11.5,16.1,16.5,24.5c0.1,0.2,0.2,0.4,0.3,0.6c5,8.3,9.5,16.8,13.6,25.5c0.2,0.4,0.3,0.8,0.5,1.2
					c3.8,8.3,7.3,16.8,10.3,25.5c0.3,0.8,0.5,1.5,0.8,2.3c2.7,7.7,4.9,15.6,6.9,23.5c0.5,1.8,1,3.7,1.4,5.5c1.8,7.5,3.1,15,4.3,22.7
					c0.4,2.6,0.8,5.3,1.2,7.9c0.9,7.2,1.6,14.5,2,21.9C807.6,305.9,807.8,308.9,807.9,311.9z"/>
				<path class="st1" d="M761.9,552.9l37.8,37.8c-7.5,11.3-15.7,22.3-24.5,33.1l-38.1-38.1c3.7-4.4,7.2-8.9,10.7-13.4
					c0.3-0.3,0.5-0.7,0.8-1C753.2,565.2,757.6,559.1,761.9,552.9z"/>
				<path class="st1" d="M719,605.9l38.2,38.2c-3.1,3.3-6,6.7-9.2,10c-6.4,6.4-13.1,12.5-19.9,18.5l-38.3-38.3
					c6.8-6,13.4-12.1,19.8-18.5C712.8,612.5,715.9,609.2,719,605.9z"/>
				<path class="st1" d="M668.9,651.6l38.2,38.2c-11,8.4-22.3,16.3-34,23.6l-37.9-37.9C646.7,668.1,658,660.1,668.9,651.6z"/>
				<path class="st1" d="M611.2,689.9l37.5,37.5c-12.9,6.8-26,12.9-39.4,18.2l-36.7-36.7C585.8,703.2,598.6,696.8,611.2,689.9z"/>
				<path class="st1" d="M544.9,719.4l36.1,36.1c-20.8,6.4-41.9,10.9-63.1,13.6l-33.7-33.7C504.7,731.7,525,726.4,544.9,719.4z"/>
				<path class="st1" d="M450.3,739.9l31.8,31.8c-2.3,0-4.7,0.2-7,0.2c-18.9,0-37.3-1.8-55.3-4.9l-26.5-26.5
					c4.8,0.3,9.7,0.4,14.6,0.6c3.3,0.1,6.4,0.4,9.7,0.4C428.5,741.5,439.5,740.9,450.3,739.9z"/>
				<path class="st1" d="M349.2,734.7l18.7,18.7c-20.9-7.6-40.7-17.3-59-29.3c2.3,0.8,4.7,1.3,7.1,2c3.7,1.1,7.4,2.2,11.2,3.2
					c5.9,1.6,11.8,3,17.8,4.2C346.4,734,347.8,734.4,349.2,734.7z"/>
				<path class="st0" d="M187.9,758.3c7.5,0,13.6,6.1,13.6,13.6s-6.1,13.6-13.6,13.6c-38.2,0-67.8-43.7-67.8-81.4
					c0-7.5,6.1-13.5,13.6-13.5s13.6,6.1,13.6,13.5C147.2,727.8,166.9,758.3,187.9,758.3z"/>
			</g>
		</g>
	</g>
</g>
<g id="Layer_2">
	<g>
		<path class="st2" d="M446.7,287.2l-205.5,108c-1.2,0.6-2.1,1.6-2.7,2.8c-0.5,1.2-0.6,2.5-0.1,3.5l12.9,29.8
			c0.5,1.1,1.4,1.8,2.6,2.1c1.2,0.3,2.5,0,3.7-0.7l202.5-119.5c2.4-1.4,3.4-4.2,2.4-6.3l-9.5-18.4
			C451.9,286.6,449.1,285.9,446.7,287.2z"/>
		<path class="st2" d="M572.3,507.5c-0.7-1.3-1.8-2.2-3.2-2.5l-135.3-33.5c-1.3-0.3-2.9-0.1-4.2,0.6c-1.3,0.7-2.4,1.9-2.9,3.3
			l-6.9,17.6l-29.4-7.4l-6.9,17.6l-26.6-6.9l-7,17.5l265,69.5l6.7-18.8l-29.6-7.6l6.7-18.5l-33-8.4l6.7-18.3
			C573.1,510.3,573,508.8,572.3,507.5z"/>
		<path class="st2" d="M442.4,237.8l54.3,104.6l85.9-47.5c0.9-0.5,1.7-0.8,2.6-1.2l-57.7-104c-0.7,0.5-1.5,1.1-2.3,1.6L442.4,237.8z
			"/>
		<path class="st3" d="M585.2,293.6c-0.9,0.4-1.8,0.7-2.6,1.2l-85.9,47.5l-1.2,0.7c-10.3,5.7-14.9,17.5-10.3,26.5
			c4.6,9,16.8,11.7,27.1,6l88.1-48.5c10.5-5.8,14.9-17.7,9.9-26.6C605.8,292.3,595,289.6,585.2,293.6z"/>
		<path class="st3" d="M508.9,161.7l-83.2,46.9c-9.8,5.5-14.3,16.7-10.1,24.9c4.2,8.3,15.7,10.5,25.6,5l1.2-0.7l82.9-46.6
			c0.8-0.5,1.6-1,2.3-1.6c8.3-6,11.7-16,7.5-23.5C530.5,158.1,518.8,156.1,508.9,161.7z"/>
	</g>
</g>
</svg>
