<?xml version="1.0" encoding="utf-8"?>
<!-- Generator: Adobe Illustrator 19.0.0, SVG Export Plug-In . SVG Version: 6.00 Build 0)  -->
<svg version="1.1" id="Layer_4" xmlns="http://www.w3.org/2000/svg" xmlns:xlink="http://www.w3.org/1999/xlink" x="0px" y="0px"
	 viewBox="0 0 714.6 714.6" enable-background="new 0 0 714.6 714.6" xml:space="preserve">
<g>
	<g>
		<g>
			<linearGradient id="SVGID_1_" gradientUnits="userSpaceOnUse" x1="357.2019" y1="797.2629" x2="357.2019" y2="-9.7738">
				<stop  offset="0" style="stop-color:#B3140E"/>
				<stop  offset="0.3798" style="stop-color:#D9281E"/>
				<stop  offset="0.437" style="stop-color:#E03027"/>
				<stop  offset="0.5623" style="stop-color:#EA3D35"/>
				<stop  offset="0.6697" style="stop-color:#EE413A"/>
				<stop  offset="1" style="stop-color:#FD5B47"/>
			</linearGradient>
			<path fill="url(#SVGID_1_)" d="M714.6,0H481.5L-0.1,481.6v191.5c0,0-0.1,0.1-0.1,0.1c0,0.2,0,0.4,0,0.6c0.1,0.7,0.1,40,0,40.7
				L714.6,0z"/>
		</g>
	</g>
</g>
<g>
	<path fill="#FFFFFF" d="M66.2,457l0.9,20.4c-8.1,2.1-13.3,4.3-15.6,6.5c-1.7,1.7-2.6,3.9-2.5,6.4c0.1,2.6,1,4.7,2.8,6.5
		c3.6,3.6,9.9,3.4,19-0.4c6.8-2.7,12.2-4.5,16.3-5.3c4.1-0.8,8.4-0.5,12.9,0.7c4.5,1.3,8.5,3.6,11.9,7c6.2,6.2,9.1,14.2,8.7,23.8
		c-0.4,9.6-4.1,17.9-10.9,24.7c-7.5,7.5-18.5,11.4-32.9,11.6l-1.7-22.3c9.4,0.1,16-1.8,20.1-5.8c1.9-1.9,2.8-4.5,2.9-7.9
		c0.1-3.4-0.8-6-2.7-7.9c-3.8-3.8-11.1-3.1-22,2c-6.2,2.9-11,4.6-14.4,5c-3.4,0.5-7.1,0-11.2-1.5c-4.1-1.5-7.6-3.7-10.5-6.6
		c-6.4-6.4-9.6-13.8-9.4-22c0.2-8.2,3.7-15.7,10.4-22.5C46.5,461.6,55.7,457.4,66.2,457z"/>
	<path fill="#FFFFFF" d="M82.4,427.7l15.4-15.4l44.3,44.4c4.1,4.1,8.6,6.3,13.4,6.5c4.8,0.2,9-1.5,12.8-5.2
		c4.3-4.3,6.3-8.8,6.2-13.7c-0.2-4.9-2.5-9.6-7.2-14.2l-43.6-43.6l15.4-15.4l46.9,47c4.1,4.1,7.3,9.5,9.6,16.1
		c2.3,6.6,2.4,13.3,0.3,20.1c-2.1,6.8-5.9,12.9-11.4,18.4c-9.9,9.9-20,14.4-30.1,13.5c-10.1-0.9-18.3-4.5-24.4-10.6L82.4,427.7z"/>
	<path fill="#FFFFFF" d="M163.7,346.4l21.1-21.1c8.8-8.8,16.7-13,23.6-12.6c6.9,0.4,12.8,3.1,17.8,8.1c3.1,3.1,5.2,6.4,6.2,9.7
		c1,3.3,1.3,7.4,0.8,12.2c6.7-3.3,12.8-4.3,18.3-3c5.5,1.3,10.1,3.9,13.9,7.7c6.7,6.7,9.6,14.2,8.7,22.4
		c-0.8,8.3-5.4,16.6-13.7,24.8L236.2,419L163.7,346.4z M191.5,343l15.9,15.9l3.6-3.6c2.6-2.6,4-5.7,4.1-9.2c0.1-3.5-1.1-6.5-3.5-8.9
		c-2-2-4.6-2.8-7.7-2.4c-3.1,0.4-6,1.9-8.7,4.5L191.5,343z M219.7,371.2l20,20l5.6-5.6c8.6-8.6,9.7-16,3.4-22.3
		c-3.4-3.4-7.1-5-11-4.7c-3.9,0.3-7.8,2.3-11.7,6.2L219.7,371.2z"/>
	<path fill="#FFFFFF" d="M256.4,253.8l12.1-12.1l102.1,43l-15.7,15.7l-20.1-8.5l-27.8,27.8l8.6,19.9l-15.7,15.6L256.4,253.8z
		 M286.2,271.5l12.8,29.9l17.2-17.2L286.2,271.5z"/>
	<path fill="#FFFFFF" d="M366,157.4l0.9,20.4c-8.1,2.1-13.3,4.3-15.6,6.5c-1.7,1.7-2.6,3.9-2.5,6.4c0.1,2.6,1,4.7,2.8,6.5
		c3.6,3.6,9.9,3.4,19-0.4c6.8-2.7,12.2-4.5,16.3-5.3c4.1-0.8,8.4-0.5,12.9,0.7c4.5,1.3,8.5,3.6,11.9,7c6.2,6.2,9.1,14.2,8.7,23.8
		c-0.4,9.6-4.1,17.9-10.9,24.7c-7.5,7.5-18.5,11.4-32.9,11.6l-1.7-22.3c9.4,0.2,16-1.8,20.1-5.8c1.9-1.9,2.8-4.5,2.9-7.9
		c0.1-3.4-0.8-6-2.7-7.9c-3.8-3.8-11.1-3.1-22,2c-6.2,2.9-11,4.6-14.4,5c-3.4,0.5-7.1,0-11.2-1.5c-4.1-1.5-7.6-3.7-10.5-6.6
		c-6.4-6.4-9.6-13.8-9.4-22c0.2-8.2,3.7-15.7,10.4-22.5C346.2,162,355.5,157.8,366,157.4z"/>
	<path fill="#FFFFFF" d="M377.2,133.1L426,84.3l15.4,15.4l-16.6,16.6l57.1,57.1l-15.6,15.6L409.1,132l-16.5,16.5L377.2,133.1z"/>
	<path fill="#FFFFFF" d="M463.3,47l12.1-12.1l102.1,43l-15.7,15.7l-20.1-8.5L513.8,113l8.6,19.9l-15.7,15.6L463.3,47z M493.1,64.7
		l12.8,29.9l17.2-17.2L493.1,64.7z"/>
</g>
<g>
	<g id="XMLID_1_">
		<g>
			<polygon fill="#FFFFFF" points="676.8,-0.9 700.5,-0.9 700.5,-0.4 1.4,699.5 0.3,699.5 0.3,677.2 0.8,677.2 676.8,1.2 			"/>
		</g>
		<g>
			
				<line fill="none" stroke="#FF7E7A" stroke-width="3" stroke-linecap="round" stroke-linejoin="round" stroke-miterlimit="10" x1="0.8" y1="677.2" x2="676.8" y2="1.2"/>
			
				<line fill="none" stroke="#FF7E7A" stroke-width="3" stroke-linecap="round" stroke-linejoin="round" stroke-miterlimit="10" x1="700.5" y1="-0.4" x2="1.4" y2="699.5"/>
			
				<polyline fill="none" stroke="#FD5B47" stroke-width="3" stroke-linecap="square" stroke-linejoin="bevel" stroke-miterlimit="10" points="
				674.4,-0.9 676.8,-0.9 700.5,-0.9 702.4,-0.9 			"/>
			
				<polyline fill="none" stroke="#C31C15" stroke-width="3" stroke-linecap="square" stroke-linejoin="round" stroke-miterlimit="10" points="
				0.3,706.6 0.3,699.5 0.3,677.2 0.3,667.1 			"/>
		</g>
	</g>
</g>
</svg>
