<?xml version="1.0" encoding="utf-8"?>
<!-- Generator: Adobe Illustrator 19.0.0, SVG Export Plug-In . SVG Version: 6.00 Build 0)  -->
<svg version="1.1" xmlns="http://www.w3.org/2000/svg" xmlns:xlink="http://www.w3.org/1999/xlink" x="0px" y="0px"
	 viewBox="-799 801 800 800" style="enable-background:new -799 801 800 800;" xml:space="preserve">
<style type="text/css">
	.st0{fill:#F78D1E;}
	.st1{fill:#FCCE59;}
	.st2{fill:none;stroke:#F78D1E;stroke-width:40;stroke-linecap:round;stroke-linejoin:round;}
</style>
<g id="Capa_1">
	<g>
		<g id="XMLID_1_">
			<g>
				<path class="st0" d="M-2.4,1144.9c3.3,30.4,2.6,61.6-1.9,92.8c0,0.9-0.2,1.7-0.3,2.5c-4.7,31-13.3,61.9-25.6,92.1
					c-0.2,0.5-0.4,1-0.7,1.6c-21,50.8-52.7,99.2-94.9,141.4c-26.4,26.4-55.7,49-86.9,67.5c-1.4,1.3-3,2.1-4.7,2.7
					c-20.6,11.9-42,22.1-64,30.3c-0.4,0.2-0.7,0.3-1.1,0.4c-43.8,16.2-89.6,24.8-135.3,24.8c-89.2,0-171.1-32.8-230.6-92.2
					c-9.5-9.6-18.4-19.8-27.2-31.4c-10.6-8.1-20.8-16.7-30.3-26.1c-134.8-134.8-119.8-369.2,33.6-522.5c80-80,186.4-125.8,292-125.8
					c89.2,0,171.1,32.8,230.5,92.3c9.8,9.8,18.7,20.1,26.9,30.9c11.2,8.6,21.3,17.3,30.6,26.6c51.8,51.8,81.4,118.3,89.6,189.2
					C-2.5,1142.9-2.3,1143.9-2.4,1144.9z M-28.3,1208.4c1.4-19.6,1.2-39.1-0.7-58.2l-28.8-28.8c0,1.6-0.1,3.2-0.1,4.7
					c0,3.7-0.1,7.5-0.2,11.2c-0.1,3.7-0.2,7.4-0.5,11.1c-0.4,6.5-1,13-1.7,19.5c-0.3,2.5-0.6,5-1,7.6L-28.3,1208.4z M-32.6,1242.5
					l-34.4-34.4c-1,4.6-2,9.1-3.2,13.7c-0.6,2.2-1.2,4.4-1.8,6.7c-1.6,5.8-3.4,11.6-5.2,17.4c-0.7,2.2-1.4,4.3-2.1,6.5
					c-1.7,4.9-3.5,9.8-5.4,14.7l36.3,36.3C-41.4,1283.2-36.1,1262.9-32.6,1242.5z M-60.7,1080.2l23.2,23.2
					c-7.9-30.7-20.2-59.9-37.5-86.5c0.5,1.6,0.9,3.2,1.4,4.7c1.5,4.8,2.9,9.6,4.2,14.4c0.8,2.8,1.5,5.5,2.2,8.3
					c1.5,6.3,2.8,12.6,3.9,19c0.6,3.5,1.1,7,1.6,10.6C-61.3,1075.9-60.9,1078-60.7,1080.2z M-59.3,1330.8l-36.9-36.9
					c-0.7,1.4-1.4,2.8-2,4.2c-0.8,1.6-1.6,3.2-2.3,4.8c-3.8,7.6-7.7,15.1-12,22.5c-0.3,0.6-0.7,1.1-1,1.7c-0.8,1.5-1.7,2.9-2.6,4.3
					l37.6,37.6C-71.4,1356.5-65,1343.8-59.3,1330.8z M-85,1135.8c0.2-7.3,0.2-14.6-0.1-21.9c-0.1-3-0.3-6-0.5-9
					c-0.4-7.3-1.1-14.6-2-21.9c-0.3-2.7-0.8-5.3-1.2-7.9c-1.2-7.6-2.5-15.2-4.3-22.7c-0.4-1.8-1-3.7-1.4-5.5
					c-2-7.9-4.2-15.8-6.9-23.5c-0.3-0.8-0.5-1.5-0.8-2.3c-3-8.6-6.5-17.1-10.3-25.5c-0.2-0.4-0.3-0.8-0.5-1.2
					c-4.1-8.7-8.6-17.2-13.6-25.5c-0.1-0.2-0.2-0.4-0.3-0.6c-5.1-8.4-10.6-16.6-16.5-24.5c-0.3-0.4-0.5-0.7-0.8-1.1l-3.5-4.7
					c-6.6-8.3-13.6-16.2-21.2-23.8C-223.4,860-298.4,830-380.4,830c-98.5,0-197.9,43-272.8,117.8
					c-142.7,142.7-157.8,359.9-33.5,484.2c11.5,11.5,24.1,21.7,37.4,30.9c3.2,2.3,6.4,4.6,9.7,6.7c6,3.8,12.1,7.3,18.3,10.7
					c1.4,0.7,2.7,1.6,4.1,2.4c7.8,4,15.9,7.7,24.1,11c2.4,1,4.9,1.8,7.3,2.7c6,2.2,12,4.3,18.1,6.2c3.2,1,6.4,1.8,9.6,2.7
					c5.5,1.5,11.1,2.8,16.7,4c3.6,0.8,7.3,1.5,10.9,2.1c5.4,0.9,10.8,1.6,16.2,2.3c3.9,0.5,7.7,1,11.7,1.3
					c6.2,0.5,12.4,0.7,18.7,0.8c2.9,0.1,5.8,0.3,8.7,0.3c92.3,0,185.4-37.7,258.3-104.1c4.9-4.4,9.6-9,14.3-13.7
					c7.7-7.7,14.9-15.6,21.9-23.7c0.7-0.8,1.3-1.5,2-2.3c6.6-7.8,12.8-15.8,18.7-23.9c0.8-1.1,1.6-2.2,2.4-3.3
					c5.7-8,11.1-16.2,16.1-24.5c0.8-1.3,1.5-2.5,2.3-3.8c4.9-8.3,9.5-16.6,13.8-25.1c0.7-1.3,1.3-2.6,1.9-4
					c4.2-8.5,8-17.1,11.5-25.8c0.5-1.3,1-2.6,1.5-3.9c3.4-8.7,6.5-17.4,9.2-26.2c0.4-1.2,0.7-2.4,1-3.6c2.4-7.9,4.4-15.9,6.3-23.9
					c0.4-1.9,0.9-3.7,1.3-5.6c1.7-7.9,3-15.9,4.1-23.9c0.4-2.6,0.8-5.3,1.1-7.9c0.9-7.5,1.5-15,1.9-22.5
					C-85.3,1141.8-85.1,1138.8-85,1135.8z M-93.3,1392.7l-37.8-37.8c-4.3,6.2-8.7,12.3-13.3,18.4c-0.3,0.3-0.5,0.7-0.8,1
					c-3.5,4.5-7,9-10.7,13.4l38.1,38.1C-109,1415-100.9,1404-93.3,1392.7z M-135.8,1446.1l-38.2-38.2c-3.1,3.3-6.2,6.6-9.4,9.8
					c-6.4,6.4-13.1,12.5-19.8,18.5l38.3,38.3c6.8-6,13.4-12.1,19.9-18.5C-141.8,1452.8-138.9,1449.4-135.8,1446.1z M-185.9,1491.8
					l-38.2-38.2c-10.9,8.5-22.1,16.5-33.7,23.9l37.9,37.9C-208.2,1508.2-196.9,1500.3-185.9,1491.8z M-244.3,1529.3l-37.5-37.5
					c-12.6,7-25.5,13.3-38.6,18.9l36.7,36.7C-270.3,1542.2-257.1,1536.2-244.3,1529.3z M-312,1557.5l-36.1-36.1
					c-19.9,6.9-40.3,12.3-60.8,15.9l33.7,33.7C-353.9,1568.5-332.7,1563.9-312,1557.5z M-410.9,1573.7l-31.8-31.8
					c-10.9,1-21.8,1.6-32.7,1.6c-3.3,0-6.4-0.4-9.7-0.4c-4.9-0.1-9.8-0.2-14.6-0.6l26.5,26.5c18,3.1,36.4,4.9,55.3,4.9
					C-415.5,1573.9-413.2,1573.8-410.9,1573.7z M-525,1555.4l-18.7-18.7c-1.5-0.3-2.9-0.7-4.3-1c-6-1.3-11.9-2.7-17.8-4.2
					c-3.7-1-7.5-2.1-11.2-3.2c-2.4-0.7-4.8-1.3-7.1-2C-565.7,1538.1-545.9,1547.9-525,1555.4z"/>
				<path class="st0" d="M-13.6,1519.6c7.5,0,13.6,6.1,13.6,13.6c0,30.5-31.3,67.8-67.8,67.8c-7.5,0-13.6-6.1-13.6-13.6
					c0-7.5,6.1-13.6,13.6-13.6c22.1,0,40.7-25,40.7-40.7C-27.2,1525.7-21.1,1519.6-13.6,1519.6z"/>
				<path class="st0" d="M-27.2,1397.6c7.5,0,13.6,6.1,13.6,13.6c0,86.7-69.7,162.7-149.2,162.7c-7.5,0-13.6-6.1-13.6-13.6
					c0-7.5,6.1-13.6,13.6-13.6c63.9,0,122-64.6,122-135.6C-40.7,1403.7-34.7,1397.6-27.2,1397.6z"/>
				<path class="st1" d="M-29,1150.2c1.9,19.2,2.1,38.6,0.7,58.2l-32.9-32.9c0.3-2.5,0.7-5,1-7.6c0.7-6.5,1.3-13,1.7-19.5
					c0.2-3.7,0.3-7.4,0.5-11.1c0.1-3.8,0.2-7.5,0.2-11.2c0-1.6,0.1-3.2,0.1-4.7L-29,1150.2z"/>
				<path class="st0" d="M-27.2,890.1c0,7.5-6.1,13.6-13.6,13.6c-7.5,0-13.5-6.1-13.5-13.6c0-31.9-26.2-62-46.5-62
					c-7.5,0-13.6-6.1-13.6-13.6c0-7.5,6.1-13.6,13.6-13.6C-63.7,801-27.2,845.1-27.2,890.1z"/>
				<path class="st1" d="M-67,1208.1l34.4,34.4c-3.5,20.4-8.8,40.8-15.9,60.9l-36.3-36.3c1.9-4.9,3.7-9.8,5.4-14.7
					c0.8-2.2,1.4-4.3,2.1-6.5c1.9-5.8,3.6-11.6,5.2-17.4c0.6-2.2,1.3-4.4,1.8-6.7C-69,1217.2-68,1212.7-67,1208.1z"/>
				<path class="st1" d="M-37.5,1103.3l-23.2-23.2c-0.3-2.1-0.6-4.3-1-6.4c-0.5-3.5-1-7.1-1.6-10.6c-1.1-6.4-2.5-12.7-3.9-19
					c-0.7-2.8-1.5-5.6-2.2-8.3c-1.3-4.8-2.7-9.6-4.2-14.4c-0.5-1.6-0.9-3.2-1.4-4.7C-57.6,1043.4-45.3,1072.7-37.5,1103.3z"/>
				<path class="st1" d="M-96.2,1293.9l36.9,36.9c-5.7,13-12.2,25.7-19.3,38.2l-37.6-37.6c0.9-1.4,1.8-2.9,2.6-4.3
					c0.3-0.6,0.7-1.1,1-1.7c4.3-7.4,8.2-14.9,12-22.5c0.8-1.6,1.6-3.2,2.3-4.8C-97.6,1296.7-96.9,1295.3-96.2,1293.9z"/>
				<path class="st1" d="M-85.1,1113.9c0.3,7.3,0.3,14.5,0.1,21.9c-0.1,3-0.3,6-0.4,9c-0.4,7.5-1,15-1.9,22.5
					c-0.3,2.6-0.7,5.3-1.1,7.9c-1.1,8-2.4,15.9-4.1,23.9c-0.4,1.9-0.9,3.7-1.3,5.6c-1.8,8-3.9,16-6.3,23.9c-0.3,1.2-0.7,2.4-1,3.6
					c-2.7,8.8-5.8,17.5-9.2,26.2c-0.5,1.3-1,2.6-1.5,3.9c-3.5,8.7-7.4,17.3-11.5,25.8c-0.7,1.3-1.3,2.7-1.9,4
					c-4.2,8.5-8.9,16.8-13.8,25.1c-0.8,1.3-1.5,2.5-2.3,3.8c-5.1,8.3-10.4,16.5-16.1,24.5c-0.8,1.1-1.6,2.2-2.4,3.3
					c-5.9,8.1-12.1,16.1-18.7,23.9c-0.7,0.8-1.4,1.5-2,2.3c-6.9,8.1-14.2,16-21.9,23.7c-4.7,4.7-9.5,9.2-14.3,13.7
					c-73,66.4-166.1,104.1-258.3,104.1c-2.9,0-5.8-0.3-8.7-0.3c-6.3-0.2-12.5-0.3-18.7-0.8c-3.9-0.3-7.8-0.9-11.7-1.3
					c-5.4-0.7-10.9-1.3-16.2-2.3c-3.7-0.6-7.3-1.4-10.9-2.1c-5.6-1.2-11.2-2.5-16.7-4c-3.2-0.8-6.4-1.7-9.6-2.7
					c-6.1-1.9-12.1-4-18.1-6.2c-2.4-0.9-4.9-1.7-7.3-2.7c-8.2-3.3-16.3-7-24.1-11c-1.4-0.7-2.7-1.6-4.1-2.4
					c-6.2-3.4-12.4-6.9-18.3-10.7c-3.3-2.1-6.5-4.4-9.7-6.7c-13.2-9.3-25.9-19.4-37.4-30.9c-124.2-124.2-109.2-341.4,33.5-484.2
					C-578.3,873-478.9,830-380.4,830c81.9,0,157,29.9,211.4,84.3c7.6,7.6,14.7,15.6,21.2,23.8l3.5,4.7c0.3,0.3,0.5,0.7,0.8,1.1
					c6,7.9,11.5,16.1,16.5,24.5c0.1,0.2,0.2,0.4,0.3,0.6c5,8.3,9.5,16.8,13.6,25.5c0.2,0.4,0.3,0.8,0.5,1.2
					c3.8,8.3,7.3,16.8,10.3,25.5c0.3,0.8,0.5,1.5,0.8,2.3c2.7,7.7,4.9,15.6,6.9,23.5c0.5,1.8,1,3.7,1.4,5.5c1.8,7.5,3.1,15,4.3,22.7
					c0.4,2.6,0.8,5.3,1.2,7.9c0.9,7.2,1.6,14.5,2,21.9C-85.4,1107.9-85.2,1110.9-85.1,1113.9z"/>
				<path class="st1" d="M-131.1,1354.9l37.8,37.8c-7.5,11.3-15.7,22.3-24.5,33.1l-38.1-38.1c3.7-4.4,7.2-8.9,10.7-13.4
					c0.3-0.3,0.5-0.7,0.8-1C-139.8,1367.2-135.4,1361.1-131.1,1354.9z"/>
				<path class="st1" d="M-174,1407.9l38.2,38.2c-3.1,3.3-6,6.7-9.2,10c-6.4,6.4-13.1,12.5-19.9,18.5l-38.3-38.3
					c6.8-6,13.4-12.1,19.8-18.5C-180.2,1414.5-177.1,1411.2-174,1407.9z"/>
				<path class="st1" d="M-224.1,1453.6l38.2,38.2c-11,8.4-22.3,16.3-34,23.6l-37.9-37.9C-246.3,1470.1-235,1462.1-224.1,1453.6z"/>
				<path class="st1" d="M-281.8,1491.9l37.5,37.5c-12.9,6.8-26,12.9-39.4,18.2l-36.7-36.7C-307.2,1505.2-294.4,1498.8-281.8,1491.9
					z"/>
				<path class="st1" d="M-348.1,1521.4l36.1,36.1c-20.8,6.4-41.9,10.9-63.1,13.6l-33.7-33.7C-388.3,1533.7-368,1528.4-348.1,1521.4
					z"/>
				<path class="st1" d="M-442.7,1541.9l31.8,31.8c-2.3,0-4.7,0.2-7,0.2c-18.9,0-37.3-1.8-55.3-4.9l-26.5-26.5
					c4.8,0.3,9.7,0.4,14.6,0.6c3.3,0.1,6.4,0.4,9.7,0.4C-464.5,1543.5-453.5,1542.9-442.7,1541.9z"/>
				<path class="st1" d="M-543.8,1536.7l18.7,18.7c-20.9-7.6-40.7-17.3-59-29.3c2.3,0.8,4.7,1.3,7.1,2c3.7,1.1,7.4,2.2,11.2,3.2
					c5.9,1.6,11.8,3,17.8,4.2C-546.6,1536-545.2,1536.4-543.8,1536.7z"/>
				<path class="st0" d="M-705.1,1560.3c7.5,0,13.6,6.1,13.6,13.6c0,7.5-6.1,13.6-13.6,13.6c-38.2,0-67.8-43.7-67.8-81.4
					c0-7.5,6.1-13.5,13.6-13.5c7.5,0,13.6,6.1,13.6,13.5C-745.8,1529.8-726.1,1560.3-705.1,1560.3z"/>
			</g>
			<g>
			</g>
		</g>
	</g>
</g>
<g id="Layer_2">
	<path class="st2" d="M-636.3,987.5l43.2,63.5c3,4.3,7.4,7.4,12.5,8.8l287.3,73.6c7,1.8,14.3,1.4,20.8-1.2l103-40.9 M-599.6,1139.7
		l0.2,0.1 M-322.8,1224l0.3,0.1 M-501.9,931.7l199.2,35c20.8,3.7,37.7,17.1,43.8,35.4l52.5,155.9c6.6,19.5,7.2,39.9,1.9,59.1
		l-45.4,163.7c-4.2,15.2-21.7,22.2-38.9,15.6l-30.3-11.6c-16.3-6.3-26.1-23.1-22.1-37.6l7.3-26.4L-632.2,1215l-6.2,22.5
		c-3.4,12.4-15.6,18.9-27,14.5l-20.3-7.8c-11-4.2-17.1-17.3-13.8-29.2l35.7-128.6c4.2-15.1,12-28.9,22.6-40.2l93.1-98.7
		C-536.1,934.8-518.6,928.8-501.9,931.7z M-588.6,1143c-1.7,6.3-8.1,9.8-14.1,8c-6-1.9-9.4-8.4-7.7-14.6c1.7-6.2,7.9-9.8,13.9-8
		C-590.4,1130.2-586.9,1136.7-588.6,1143z M-308.1,1228.5c-2,7.3-10.2,11.1-18.3,8.6c-8-2.5-12.8-10.3-10.8-17.5
		c2-7.2,10.1-11.1,18.1-8.7C-311.1,1213.3-306.1,1221.2-308.1,1228.5z"/>
</g>
</svg>
