<?xml version="1.0" encoding="utf-8"?>
<!-- Generator: Adobe Illustrator 19.0.0, SVG Export Plug-In . SVG Version: 6.00 Build 0)  -->
<svg version="1.1" id="Layer_1" xmlns="http://www.w3.org/2000/svg" xmlns:xlink="http://www.w3.org/1999/xlink" x="0px" y="0px"
	 viewBox="46.7 75.3 406.4 61.9" style="enable-background:new 46.7 75.3 406.4 61.9;" xml:space="preserve">
<style type="text/css">
	.st0{fill:#EE2524;}
</style>
<g id="XMLID_28_">
</g>
<g id="XMLID_49_">
</g>
<g id="XMLID_50_">
</g>
<g id="XMLID_51_">
</g>
<g id="XMLID_52_">
</g>
<g id="XMLID_53_">
</g>
<g>
	<path class="st0" d="M46.7,132.9l12.1-57.1H83c3.7,0,7,0.4,9.8,1.1c2.8,0.8,5.1,2,6.9,3.7s3.2,4,4.1,6.8s1.4,6.3,1.4,10.4
		c0,4.4-0.6,8.7-1.7,12.9c-1.1,4.2-3,8-5.5,11.3c-2.6,3.3-6,6-10.1,8c-4.2,2-9.3,3-15.4,3H46.7V132.9z M71.4,126.6
		c2,0,3.7-0.8,5.3-2.5c1.5-1.6,2.8-3.7,4-6.3c1.1-2.5,2-5.4,2.8-8.5c0.7-3.1,1.4-6.1,1.8-9s0.8-5.5,1-7.7c0.2-2.3,0.3-3.9,0.3-4.9
		c0-1.9-0.4-3.3-1.1-4.4c-0.8-1-2.1-1.6-3.9-1.6h-4.3l-9.6,44.7h3.7V126.6z"/>
	<path class="st0" d="M125.9,114.8c-0.2,1.3-0.4,2.6-0.5,3.8c-0.1,1.2-0.1,2.3-0.1,3.2c0,0.5,0,1.1,0.1,1.8c0.1,0.7,0.2,1.3,0.4,1.8
		c0.2,0.6,0.5,1,0.9,1.4s0.9,0.6,1.7,0.6c0.5,0,1.2-0.2,1.8-0.5c0.7-0.4,1.4-0.9,2.1-1.5c0.7-0.7,1.4-1.5,2-2.4c0.6-1,1.1-2,1.5-3.2
		h14.8l-2.3,9.6c-1.2,0.8-2.6,1.4-4.1,2c-1.6,0.5-3.2,1-5,1.3c-1.7,0.3-3.5,0.6-5.3,0.7c-1.8,0.1-3.5,0.2-5.1,0.2
		c-3,0-5.8-0.3-8.4-0.8s-4.8-1.5-6.8-2.8c-1.9-1.3-3.4-3.1-4.5-5.3c-1.1-2.2-1.7-4.9-1.7-8.1c0-2.9,0.5-5.8,1.4-8.6
		c0.9-2.8,2.5-5.3,4.7-7.5s5.1-3.9,8.8-5.3c3.7-1.3,8.3-2,13.8-2c6,0,10.5,0.9,13.5,2.8s4.5,4.8,4.5,8.7c0,1.6-0.2,3.4-0.7,5.3
		s-1.2,3.5-2.2,4.8H125.9z M137.9,104.1c0-1.9-0.3-3.1-0.9-3.8c-0.6-0.7-1.3-1-2.2-1c-1,0-1.8,0.3-2.7,0.9s-1.5,1.5-2.2,2.5
		c-0.7,1.1-1.3,2.3-1.8,3.6c-0.5,1.4-1,2.8-1.4,4.3H137c0.1-0.7,0.2-1.5,0.4-2.3c0.1-0.7,0.2-1.4,0.3-2.2
		C137.8,105.4,137.9,104.7,137.9,104.1z"/>
	<path d="M167.7,75.7h37.9l-1.4,6.8h-18.5L182.2,99h15.4l-1.4,6.9h-15.4l-5.8,26.9h-19.4L167.7,75.7z"/>
	<path d="M216.6,132.9h-18.3l8.2-38.7H225L216.6,132.9z M227.3,82.4c0,1.4-0.3,2.6-0.9,3.6c-0.6,1-1.3,1.9-2.3,2.6
		c-0.9,0.7-2,1.3-3.2,1.6c-1.2,0.4-2.4,0.5-3.7,0.5c-2.4,0-4.4-0.6-6-1.7s-2.4-2.9-2.4-5.4c0-1.3,0.3-2.5,0.8-3.6
		c0.5-1,1.3-1.9,2.2-2.6s2-1.2,3.2-1.6s2.5-0.5,3.8-0.5c2.3,0,4.3,0.6,5.9,1.7C226.5,78.2,227.3,80,227.3,82.4z"/>
	<path d="M245.2,114.8c-0.2,1.3-0.4,2.6-0.5,3.8c-0.1,1.2-0.1,2.3-0.1,3.2c0,0.5,0,1.1,0.1,1.8c0.1,0.7,0.2,1.3,0.4,1.8
		c0.2,0.6,0.5,1,0.9,1.4s0.9,0.6,1.7,0.6c0.5,0,1.2-0.2,1.8-0.5c0.7-0.4,1.4-0.9,2.1-1.5c0.7-0.7,1.3-1.5,2-2.4c0.6-1,1.1-2,1.5-3.2
		h14.8l-2.3,9.6c-1.2,0.8-2.6,1.4-4.1,2c-1.6,0.5-3.2,1-4.9,1.3c-1.7,0.3-3.5,0.6-5.3,0.7c-1.8,0.1-3.5,0.2-5.1,0.2
		c-3,0-5.8-0.3-8.4-0.8c-2.6-0.5-4.8-1.5-6.8-2.8c-1.9-1.3-3.4-3.1-4.5-5.3c-1.1-2.2-1.7-4.9-1.7-8.1c0-2.9,0.5-5.8,1.4-8.6
		c0.9-2.8,2.5-5.3,4.7-7.5s5.1-3.9,8.8-5.3c3.7-1.3,8.3-2,13.8-2c6,0,10.5,0.9,13.5,2.8s4.5,4.8,4.5,8.7c0,1.6-0.2,3.4-0.7,5.3
		s-1.2,3.5-2.2,4.8H245.2z M257.2,104.1c0-1.9-0.3-3.1-0.9-3.8c-0.6-0.7-1.3-1-2.2-1c-1,0-1.8,0.3-2.7,0.9c-0.8,0.6-1.5,1.5-2.2,2.5
		c-0.7,1.1-1.3,2.3-1.8,3.6c-0.5,1.4-1,2.8-1.3,4.3h10.3c0.1-0.7,0.2-1.5,0.4-2.3c0.1-0.7,0.2-1.4,0.3-2.2
		C257.2,105.4,257.2,104.7,257.2,104.1z"/>
	<path d="M282.1,94.1h14.7l1.3,6.8h0.6c1.4-2.2,3.1-4,5.3-5.5c2.2-1.5,5-2.3,8.5-2.3c0.2,0,0.6,0,1.1,0s1.1,0.1,1.7,0.3
		c0.6,0.2,1.3,0.4,2,0.6c0.7,0.3,1.4,0.6,2,1.1l-4,18.5h-9.8c-0.1-3.7-0.5-6.3-1-7.8s-1.4-2.2-2.6-2.2c-0.6,0-1.2,0.1-1.9,0.4
		c-0.7,0.3-1.4,0.9-2.1,1.8l-5.8,26.9h-18.4L282.1,94.1z"/>
	<path d="M325.6,94.1h14.7l1.3,6.8h0.6c1.4-2.2,3.1-4,5.3-5.5c2.2-1.5,5-2.3,8.5-2.3c0.2,0,0.6,0,1.1,0s1.1,0.1,1.7,0.3
		c0.6,0.2,1.3,0.4,2,0.6c0.7,0.3,1.4,0.6,2,1.1l-4,18.5h-9.6c-0.1-3.7-0.5-6.3-1-7.8s-1.4-2.2-2.6-2.2c-0.6,0-1.2,0.1-1.9,0.4
		c-0.7,0.3-1.4,0.9-2.1,1.8l-5.8,26.9h-18.4L325.6,94.1z"/>
	<path d="M439.8,105.5c0.1-0.3,0.1-0.6,0.2-0.9s0.1-0.6,0.1-1c0-1.1-0.2-2.1-0.6-3s-1.2-1.4-2.3-1.4c-1,0-2,0.4-3.1,1.3
		c-1,0.9-1.5,2-1.5,3.5c0,1,0.3,1.7,0.8,2.3c0.5,0.6,1.2,1,2,1.4s1.8,0.7,2.8,0.9c1,0.2,2.1,0.5,3.1,0.7c1.4,0.4,2.8,0.8,4.1,1.3
		c1.3,0.5,2.4,1.2,3.5,2c1,0.8,1.8,1.9,2.4,3.1s0.9,2.7,0.9,4.5c0,2.5-0.6,4.6-1.8,6.3c-1.2,1.7-2.8,3.1-4.9,4.1
		c-2.1,1.1-4.5,1.8-7.3,2.2c-2.8,0.4-5.8,0.6-9,0.6c-4.9,0-8.9-0.4-12.1-1.1s-5.4-1.4-6.7-2.1l1.9-9h12.1c-0.1,0.3-0.1,0.6-0.1,0.9
		s0,0.6,0,0.9c0,1.4,0.3,2.5,0.9,3.3s1.7,1.2,3.3,1.2c1.7,0,3-0.5,3.7-1.5c0.8-1,1.1-1.9,1.1-2.7c0-0.8-0.3-1.6-0.9-2.2
		s-1.4-1.2-2.4-1.6s-2-0.8-3.2-1.2c-1.2-0.3-2.3-0.6-3.4-0.9c-0.8-0.2-1.7-0.5-2.7-0.9s-1.9-1-2.8-1.8s-1.7-1.8-2.3-3
		c-0.6-1.2-0.9-2.8-0.9-4.6c0-2.6,0.6-4.8,1.9-6.6c1.3-1.8,3-3.2,5-4.3c2.1-1.1,4.4-1.9,7-2.3c2.6-0.5,5.2-0.7,7.9-0.7
		c3.3,0,6.4,0.3,9.4,0.9c2.9,0.6,5.3,1.4,7.2,2.3l-2.1,9.1L439.8,105.5L439.8,105.5z"/>
</g>
<g>
	<g transform="translate(0.000000,439.000000) scale(0.100000,-0.100000)">
		<path d="M3401.8,3612.4c4.1-0.3,71.9-2.3,150.4-4.5c224.8-6.5,262-7.8,262.8-8.4c0.3-0.4-1.8-2.2-4.5-4.1
			c-2.9-1.9-9.8-7.8-15.5-13.2l-10.5-9.7l-123.6-0.3c-68.1-0.1-120.6-0.4-116.9-0.7c9.8-0.7,79.4-3.8,157.9-7.2
			c37.4-1.6,68.9-3.3,70-3.5c1.2-0.4,0.4-2.3-2.9-6.4c-2.6-3.1-7.6-9.5-11.2-14.2l-6.4-8.6h-64.8c-35.7,0-64.5-0.3-64.2-0.5
			s27.2-3.1,59.8-6.3c32.5-3.3,59.5-6,59.6-6.3c0.3-0.1-3.4-6.7-8.2-14.4c-51.6-82.5-91.9-194.1-104.8-289.6
			c-3.7-27.8-3.9-71-0.7-89.3c5.9-31.6,18.1-51.6,34.4-56.2c3.8-1.1,3.7-1.2-2.2-2c-3.4-0.4-23.8-2.6-45.6-4.8l-39.5-3.9l64.7-0.1
			c55.1-0.1,66.1-0.4,74.3-2.3l9.7-2.3l10.1,6.5c30.4,19.6,61.5,52.8,90.6,96.6c62.3,93.5,108.2,231.2,109.4,328
			c0.3,23.3,2.3,7.8,2.7-20.4c0.3-21.8,0.3-22.5,1.5-12.2c0.7,6,1,25.6,0.5,43.6c-0.7,38.2-2,46.4-12.5,79.6
			c-2.3,7.3,6.1-11,9.1-19.7c9.7-28.4,12.7-53.9,11.7-98.5c-0.8-40.7-4.6-69-14.6-107.8c-1.6-6.1-2.6-11.3-2.3-11.6s3,7.6,6.1,17.6
			c6.7,21.5,7.1,18.9,1.6-9.1c-18.1-92.3-61.7-179.3-121.1-242.1c-15.7-16.6-20.6-19.5-9.7-5.7c14.3,18,31.2,42.6,43.7,64
			c4.6,7.9,1.9,4.6-9.8-11.6c-11.6-15.9-32.8-41-42.7-50.4l-6.5-6.1l6.1,7.5c8.6,10.5,21.6,28,26.9,36.1c3.8,5.9,3.8,6.1,0.5,2
			c-31.8-39.5-60.2-65.1-87.8-79.6c-6.7-3.5-12-6.5-12-6.8c0-0.1,4.5-1.5,9.8-2.9c5.4-1.2,9.3-2.6,8.6-2.7
			c-0.8-0.3-50.4-2.6-110.2-5.3c-59.9-2.6-111.1-5-113.6-5.2c-2.6-0.3,57.4-0.7,133.4-0.8l138.1-0.1l12.2-3.3l12.2-3.1l-8.8-0.8
			c-4.9-0.5-75.9-2.9-157.9-5.2c-81.9-2.3-163.1-4.6-180.3-5.3c-17.1-0.5,71.9-0.8,198-0.8l229.3,0.1l11.6,4.5
			c84.4,32.3,173.3,172.7,202,318.8c6.4,32.4,8.2,50.5,8.2,83.7c0.1,44.5-4.5,69.7-17.7,97c-7.3,15.4-20.8,30.4-32.8,36.7
			c-6.1,3.1-30.9,9.9-108.9,29.4l-101,25.3l-231.8-0.3C3498.6,3613,3397.7,3612.7,3401.8,3612.4z M3997.9,3549.5
			c9.5-28.3,12.9-57.6,11.8-98.8c-1-31.2-3-49-9.3-80.3c-19.9-99.2-70.1-201.7-130-265.4c-8.6-9.1-8.2-8.2,1.8,4.8
			c9,11.6,28,40.7,37.8,57.7c7.5,13.1,22.9,43.6,19.5,38.5c-1-1.5-6.3-9.4-11.6-17.7c-5.4-8.4-9.9-14.8-9.9-14.4s4.4,9.8,9.7,20.8
			c39.3,82.1,71,191.5,77.7,268.3c1.5,17.3,1.9,19.3,2.7,13.6c0.4-3.7,1-13.2,1.2-21.1l0.3-14.3l1,10.2c1.5,15.8,1.5,47.2,0,62.7
			c-1.6,16.3-5.7,37.2-9.5,48.3c-1.5,4.2-2.7,8.2-2.7,8.6C3988.7,3573.2,3994.4,3560.3,3997.9,3549.5z M3847.9,3555
			c47.2-24.4,30.2-169.7-35.1-301.6c-31.6-63.6-67.2-108.9-98.3-124.4c-18.1-9.3-30.4-8.7-41.5,1.6c-7.2,6.7-11.8,15.1-15.7,29.3
			c-2.6,9.1-3,14.2-3,40.4c0,22.2,0.5,34,2.4,45.6c20.7,133.7,99.1,282.3,162.8,308.6C3829.2,3558.4,3840.9,3558.5,3847.9,3555z
			 M4062,3402.7c-4.8-76.9-31-157.2-73.4-224.8c-14.6-23.1-16.2-24.4-7.2-5.4c43.4,92.4,70.1,185.5,78.7,274.3l1,10.9l1.2-15
			C4063.1,3432.8,4063,3419,4062,3402.7z M4078.2,3402.4c-2.7-37.6-10.2-78.3-20.7-113.5c-2.2-7.3-3.7-13.6-3.5-13.9
			c0.3-0.1,3.8,8.8,7.9,20.1c4.1,11.2,7.6,19.5,7.9,18.4s-1.8-11.2-4.5-22.2c-24.4-101.1-75.4-189.2-142.2-244.9
			c-1.8-1.5-0.5,0.5,2.7,4.5c13.9,16.6,26.9,33.2,32.5,41.4c6.9,10.1,6.4,9.5-12-11.4c-12.4-14.2-30.5-31-45.7-42.9
			c-8-6.1-24-15.5-25.3-15.1c-0.8,0.3,4.1,4.4,10.6,9.3c44.1,32.5,93.4,100.4,128.2,176.7c34.7,75.7,58.7,162,62.2,223.5
			c0.4,7.9,1.2,15.2,1.6,16.3C4079.6,3452.4,4079.9,3422.7,4078.2,3402.4z M4003.9,3324.1c-11-51.9-31.8-106.4-58.5-152.6
			c-23.1-40.3-57.2-82.3-85.2-105.5l-7.2-6l5.2,6.1c38.4,45.9,64.2,85.6,93.6,144.3c19.1,38,40.6,88.5,50.8,119.5
			c2.2,6.3,4.1,11.2,4.2,10.9C4007.1,3340.6,4005.7,3333.1,4003.9,3324.1z"/>
		<path d="M3826.8,3535.8c-22.7-4.8-54.2-36.5-82.8-83.7c-52.8-87.5-85.3-215-70.2-274.5c3.4-12.9,6.9-20,13.2-26.1
			c6.3-6,12.7-8.2,21.6-7.2c9.1,1,23,7.2,21.9,9.9c-2.3,5.9-3.8,28.7-3,44.1c3,54,22.9,122.1,53.2,182.4
			c18.8,37.2,36.9,63.6,57.3,83.7c9,9,23.5,19.5,29.7,21.5c0.8,0.3,0.5,4.5-0.8,11.6C3861.3,3526.5,3847.3,3540,3826.8,3535.8z"/>
	</g>
</g>
</svg>
